<svg width="140" height="60" viewBox="0 0 140 60" fill="none" xmlns="http://www.w3.org/2000/svg">
<path d="M45.2427 2.35987L48.0195 0L50.8096 2.35987H45.2427Z" fill="#FCE181"/>
<path d="M50.52 13.0914H45.4688V12.5113H50.52V13.0914Z" fill="#FCE181"/>
<path d="M49.7776 13.8427H46.2603V13.2758H49.7776V13.8427Z" fill="#FCE181"/>
<path d="M49.5668 15.0162H46.4858C46.8561 14.9503 47.147 14.6998 47.147 14.3965C47.147 14.1065 46.8561 13.856 46.4858 13.7901H49.5668C49.1833 13.856 48.9057 14.1065 48.9057 14.3965C48.9057 14.6998 49.1833 14.9503 49.5668 15.0162Z" fill="#FCE181"/>
<path d="M49.5668 15.886H46.4858V15.0555H49.5668V15.886Z" fill="#FCE181"/>
<path d="M48.9054 26.3672H47.0674V15.8862H48.9054V26.3672Z" fill="#FCE181"/>
<path d="M50.8627 3.11133H45.1899V2.53125H50.8627V3.11133Z" fill="#FCE181"/>
<path d="M49.5668 28.1602H46.4858C46.8561 28.0943 47.147 27.8438 47.147 27.5538C47.147 27.2505 46.8561 27.0001 46.4858 26.9341H49.5668C49.1833 27.0001 48.9057 27.2505 48.9057 27.5538C48.9057 27.8438 49.1833 28.0943 49.5668 28.1602Z" fill="#FCE181"/>
<path d="M49.5668 29.0829H46.4858V28.0678H49.5668V29.0829Z" fill="#FCE181"/>
<path d="M50.2938 31.0605H45.7583V29.0829H50.2938V31.0605Z" fill="#FCE181"/>
<path d="M51.1274 32.959H44.9258V30.9946H51.1274V32.959Z" fill="#FCE181"/>
<path d="M52 34.9366H44V32.959H52V34.9366Z" fill="#FCE181"/>
<path d="M47.9798 29.0829V31.0605H45.7583V29.0829H47.9798Z" fill="#FCE181"/>
<path d="M47.9803 30.9946V32.959H44.9258V30.9946H47.9803Z" fill="#FCE181"/>
<path d="M48.0198 32.959V34.9366H44V32.959H48.0198Z" fill="#FCE181"/>
<path d="M48.9074 15.8862V26.3672H48.0347V15.8862H48.9074Z" fill="#FCE181"/>
<path d="M49.5408 26.9341H46.5127V26.3672H49.5408V26.9341Z" fill="#FCE181"/>
<path d="M48.5096 11.1798H47.5708V5.35266H48.5096V11.1798Z" fill="#FCE181"/>
<path d="M48.8664 4.50892C48.6416 4.74622 48.5094 5.03626 48.5094 5.35267H47.5706C47.5706 5.00989 47.4119 4.70667 47.1606 4.46936V3.99475H48.8664V4.50892Z" fill="#FCE181"/>
<path d="M50.6775 4.0738H45.375V3.11139H50.6775V4.0738Z" fill="#FCE181"/>
<path d="M47.1865 11.9313C47.4113 11.694 47.5435 11.4039 47.5435 11.0743H48.4824C48.4824 11.4171 48.641 11.7203 48.8923 11.9708V12.4323H47.1865V11.9313Z" fill="#FCE181"/>
<path d="M50.2273 11.1798H49.6719V5.35266H50.2273V11.1798Z" fill="#FCE181"/>
<path d="M50.439 4.50892C50.3068 4.74622 50.2275 5.03626 50.2275 5.35267H49.6721C49.6721 5.00989 49.5795 4.70667 49.4341 4.46936V3.99475H50.439V4.50892Z" fill="#FCE181"/>
<path d="M49.4487 11.9313C49.581 11.694 49.6603 11.4039 49.6603 11.0743H50.2157C50.2157 11.4171 50.295 11.7203 50.4405 11.9708V12.4323H49.4487V11.9313Z" fill="#FCE181"/>
<path d="M46.3801 11.1798H45.8247V5.35266H46.3801V11.1798Z" fill="#FCE181"/>
<path d="M46.5918 4.50892C46.4596 4.74622 46.3802 5.03626 46.3802 5.35267H45.8249C45.8249 5.00989 45.7455 4.70667 45.6001 4.46936V3.99475H46.5918V4.50892Z" fill="#FCE181"/>
<path d="M45.6001 11.9313C45.7455 11.694 45.8249 11.4039 45.8249 11.0743H46.367C46.367 11.4171 46.4596 11.7203 46.605 11.9708V12.4323H45.6001V11.9313Z" fill="#FCE181"/>
<path opacity="0.5" d="M46.645 2.35987L48.0202 0L49.3955 2.35987H46.645Z" fill="#FCE181"/>
<path d="M5.55 35.0615V31.8615H9.825C10.5917 31.8615 11.1667 31.6615 11.55 31.2615C11.9333 30.8615 12.125 30.2949 12.125 29.5615C12.125 28.8282 11.9333 28.2699 11.55 27.8865C11.1667 27.4865 10.5917 27.2865 9.825 27.2865H5.55V24.8115H9.625C10.8917 24.8115 12.0167 24.9699 13 25.2865C13.9833 25.5865 14.7583 26.0782 15.325 26.7615C15.8917 27.4449 16.175 28.3699 16.175 29.5365V29.8865C16.175 30.9699 15.925 31.9032 15.425 32.6865C14.925 33.4532 14.1917 34.0449 13.225 34.4615C12.2583 34.8615 11.0583 35.0615 9.625 35.0615H5.55ZM2.05 35.0615V16.5365H6.05V35.0615H2.05ZM5.55 26.6365V24.1865H9.15C9.93333 24.1865 10.5 23.9865 10.85 23.5865C11.2 23.1865 11.375 22.6532 11.375 21.9865C11.375 21.2865 11.2 20.7365 10.85 20.3365C10.5 19.9365 9.93333 19.7365 9.15 19.7365H5.55V16.5365H8.9C11 16.5365 12.6083 16.9782 13.725 17.8615C14.8583 18.7449 15.425 20.0032 15.425 21.6365V22.0115C15.425 23.1449 15.1333 24.0532 14.55 24.7365C13.9833 25.4199 13.2083 25.9115 12.225 26.2115C11.2583 26.4949 10.15 26.6365 8.9 26.6365H5.55ZM19.1346 34.9365V21.2365H22.3096V27.1115H22.2346C22.2346 25.1782 22.6429 23.6865 23.4596 22.6365C24.2929 21.5865 25.4929 21.0615 27.0596 21.0615H27.5846V24.5115H26.5846C25.4846 24.5115 24.6346 24.8115 24.0346 25.4115C23.4346 25.9949 23.1346 26.8449 23.1346 27.9615V34.9365H19.1346ZM37.8344 34.9365V30.8865H37.1594V26.4865C37.1594 25.7865 36.9927 25.2615 36.6594 24.9115C36.326 24.5615 35.7927 24.3865 35.0594 24.3865C34.6927 24.3865 34.2094 24.3949 33.6094 24.4115C33.0094 24.4282 32.3927 24.4532 31.7594 24.4865C31.126 24.5199 30.551 24.5532 30.0344 24.5865V21.2115C30.4177 21.1782 30.8677 21.1449 31.3844 21.1115C31.901 21.0782 32.4344 21.0532 32.9844 21.0365C33.5344 21.0199 34.051 21.0115 34.5344 21.0115C35.9344 21.0115 37.1094 21.2115 38.0594 21.6115C39.026 22.0115 39.7594 22.6199 40.2594 23.4365C40.7594 24.2365 41.0094 25.2699 41.0094 26.5365V34.9365H37.8344ZM33.4594 35.2865C32.476 35.2865 31.6094 35.1115 30.8594 34.7615C30.126 34.4115 29.551 33.9115 29.1344 33.2615C28.7177 32.5949 28.5094 31.8032 28.5094 30.8865C28.5094 29.8865 28.7677 29.0699 29.2844 28.4365C29.801 27.7865 30.526 27.3115 31.4594 27.0115C32.3927 26.6949 33.4677 26.5365 34.6844 26.5365H37.6094V28.7615H34.6594C33.9594 28.7615 33.4177 28.9365 33.0344 29.2865C32.6677 29.6199 32.4844 30.0782 32.4844 30.6615C32.4844 31.2115 32.6677 31.6615 33.0344 32.0115C33.4177 32.3449 33.9594 32.5115 34.6594 32.5115C35.1094 32.5115 35.5094 32.4365 35.8594 32.2865C36.226 32.1199 36.526 31.8449 36.7594 31.4615C36.9927 31.0782 37.126 30.5449 37.1594 29.8615L38.1094 30.8615C38.026 31.8115 37.7927 32.6115 37.4094 33.2615C37.0427 33.9115 36.526 34.4115 35.8594 34.7615C35.2094 35.1115 34.4094 35.2865 33.4594 35.2865ZM54.9012 34.9365V21.2365H58.0762V27.1115H57.8512C57.8512 25.7115 58.0262 24.5449 58.3762 23.6115C58.7428 22.6782 59.2928 21.9782 60.0262 21.5115C60.7595 21.0449 61.6512 20.8115 62.7012 20.8115H62.8762C64.4762 20.8115 65.6928 21.3365 66.5262 22.3865C67.3762 23.4199 67.8012 24.9949 67.8012 27.1115V34.9365H63.8012V26.8865C63.8012 26.1532 63.5845 25.5532 63.1512 25.0865C62.7178 24.6199 62.1345 24.3865 61.4012 24.3865C60.6512 24.3865 60.0428 24.6282 59.5762 25.1115C59.1262 25.5782 58.9012 26.1949 58.9012 26.9615V34.9365H54.9012ZM77.4848 35.4115C76.3181 35.4115 75.2848 35.2115 74.3848 34.8115C73.5014 34.4115 72.7598 33.8782 72.1598 33.2115C71.5764 32.5282 71.1264 31.7699 70.8098 30.9365C70.5098 30.0865 70.3598 29.2199 70.3598 28.3365V27.8365C70.3598 26.9199 70.5098 26.0449 70.8098 25.2115C71.1264 24.3615 71.5764 23.6032 72.1598 22.9365C72.7431 22.2699 73.4681 21.7449 74.3348 21.3615C75.2181 20.9615 76.2181 20.7615 77.3348 20.7615C78.8014 20.7615 80.0348 21.0949 81.0348 21.7615C82.0514 22.4115 82.8264 23.2699 83.3598 24.3365C83.8931 25.3865 84.1598 26.5365 84.1598 27.7865V29.1365H72.0348V26.8615H81.7348L80.4348 27.9115C80.4348 27.0949 80.3181 26.3949 80.0848 25.8115C79.8514 25.2282 79.5014 24.7865 79.0348 24.4865C78.5848 24.1699 78.0181 24.0115 77.3348 24.0115C76.6348 24.0115 76.0431 24.1699 75.5598 24.4865C75.0764 24.8032 74.7098 25.2699 74.4598 25.8865C74.2098 26.4865 74.0848 27.2282 74.0848 28.1115C74.0848 28.9282 74.2014 29.6449 74.4348 30.2615C74.6681 30.8615 75.0348 31.3282 75.5348 31.6615C76.0348 31.9949 76.6848 32.1615 77.4848 32.1615C78.2181 32.1615 78.8181 32.0199 79.2848 31.7365C79.7514 31.4532 80.0681 31.1032 80.2348 30.6865H83.9098C83.7098 31.6032 83.3181 32.4199 82.7348 33.1365C82.1514 33.8532 81.4181 34.4115 80.5348 34.8115C79.6514 35.2115 78.6348 35.4115 77.4848 35.4115Z" fill="white"/>
<path d="M94 28.9365L138 28.9365" stroke="#FCE181" stroke-width="2"/>
<line x1="24" y1="49.9365" x2="29" y2="49.9365" stroke="#FCE181" stroke-width="2"/>
<path d="M3.75 56.9365V38.6865H4.55V56.9365H3.75ZM1.7 39.4365V38.6865H4.55V39.4365H1.7ZM14.4 57.3365C13.3167 57.3365 12.375 57.1449 11.575 56.7615C10.775 56.3782 10.1167 55.8615 9.6 55.2115C9.08333 54.5449 8.69167 53.8032 8.425 52.9865C8.175 52.1532 8.05 51.3032 8.05 50.4365V50.2865C8.05 49.4365 8.175 48.6115 8.425 47.8115C8.69167 47.0115 9.08333 46.2865 9.6 45.6365C10.1333 44.9865 10.7833 44.4782 11.55 44.1115C12.3333 43.7282 13.2333 43.5365 14.25 43.5365C15.5167 43.5365 16.5917 43.8282 17.475 44.4115C18.375 44.9949 19.0583 45.7532 19.525 46.6865C20.0083 47.6032 20.25 48.5782 20.25 49.6115V50.4115H8.475V49.6615H19.825L19.5 49.9115C19.5 48.8615 19.2917 47.9115 18.875 47.0615C18.4583 46.2115 17.8583 45.5365 17.075 45.0365C16.2917 44.5365 15.35 44.2865 14.25 44.2865C13.05 44.2865 12.0417 44.5699 11.225 45.1365C10.425 45.7032 9.81667 46.4449 9.4 47.3615C9 48.2782 8.8 49.2782 8.8 50.3615C8.8 51.4615 9 52.4865 9.4 53.4365C9.81667 54.3699 10.4333 55.1282 11.25 55.7115C12.0833 56.2949 13.1333 56.5865 14.4 56.5865C15.7667 56.5865 16.8667 56.2699 17.7 55.6365C18.5333 54.9865 19.05 54.2032 19.25 53.2865H20.05C19.8833 54.0699 19.55 54.7699 19.05 55.3865C18.55 55.9865 17.9083 56.4615 17.125 56.8115C16.3583 57.1615 15.45 57.3365 14.4 57.3365Z" fill="white"/>
<path d="M41.425 57.4115C39.775 57.4115 38.3583 57.1282 37.175 56.5615C35.9917 55.9782 35.025 55.2199 34.275 54.2865C33.525 53.3365 32.9667 52.3199 32.6 51.2365C32.25 50.1365 32.075 49.0699 32.075 48.0365V47.4865C32.075 46.3532 32.2583 45.2365 32.625 44.1365C32.9917 43.0199 33.55 42.0115 34.3 41.1115C35.0667 40.2115 36.025 39.4949 37.175 38.9615C38.3417 38.4115 39.7167 38.1365 41.3 38.1365C42.95 38.1365 44.4083 38.4449 45.675 39.0615C46.9417 39.6782 47.95 40.5365 48.7 41.6365C49.4667 42.7199 49.9167 43.9949 50.05 45.4615H45.925C45.8083 44.7282 45.5417 44.1032 45.125 43.5865C44.7083 43.0699 44.1667 42.6699 43.5 42.3865C42.85 42.1032 42.1167 41.9615 41.3 41.9615C40.4833 41.9615 39.7583 42.1032 39.125 42.3865C38.4917 42.6699 37.9583 43.0699 37.525 43.5865C37.1083 44.1032 36.7833 44.7199 36.55 45.4365C36.3333 46.1365 36.225 46.9199 36.225 47.7865C36.225 48.6365 36.3333 49.4199 36.55 50.1365C36.7833 50.8365 37.1167 51.4532 37.55 51.9865C38 52.5032 38.55 52.9032 39.2 53.1865C39.85 53.4532 40.5917 53.5865 41.425 53.5865C42.6917 53.5865 43.7583 53.2782 44.625 52.6615C45.5083 52.0449 46.0417 51.1949 46.225 50.1115H50.325C50.175 51.4449 49.725 52.6699 48.975 53.7865C48.2417 54.8865 47.2333 55.7699 45.95 56.4365C44.6833 57.0865 43.175 57.4115 41.425 57.4115ZM52.8201 56.9365V38.6865H56.8201V49.2115H56.2201C56.2201 47.8282 56.3951 46.6615 56.7451 45.7115C57.0951 44.7615 57.6118 44.0449 58.2951 43.5615C58.9785 43.0615 59.8368 42.8115 60.8701 42.8115H61.0451C62.5618 42.8115 63.7201 43.3532 64.5201 44.4365C65.3201 45.5032 65.7201 47.0699 65.7201 49.1365V56.9365H61.7201V48.8865C61.7201 48.1365 61.4951 47.5365 61.0451 47.0865C60.6118 46.6199 60.0368 46.3865 59.3201 46.3865C58.5701 46.3865 57.9618 46.6282 57.4951 47.1115C57.0451 47.5949 56.8201 48.2365 56.8201 49.0365V56.9365H52.8201ZM77.4037 56.9365V52.8865H76.7287V48.4865C76.7287 47.7865 76.562 47.2615 76.2287 46.9115C75.8954 46.5615 75.362 46.3865 74.6287 46.3865C74.262 46.3865 73.7787 46.3949 73.1787 46.4115C72.5787 46.4282 71.962 46.4532 71.3287 46.4865C70.6954 46.5199 70.1204 46.5532 69.6037 46.5865V43.2115C69.987 43.1782 70.437 43.1449 70.9537 43.1115C71.4704 43.0782 72.0037 43.0532 72.5537 43.0365C73.1037 43.0199 73.6204 43.0115 74.1037 43.0115C75.5037 43.0115 76.6787 43.2115 77.6287 43.6115C78.5954 44.0115 79.3287 44.6199 79.8287 45.4365C80.3287 46.2365 80.5787 47.2699 80.5787 48.5365V56.9365H77.4037ZM73.0287 57.2865C72.0454 57.2865 71.1787 57.1115 70.4287 56.7615C69.6954 56.4115 69.1204 55.9115 68.7037 55.2615C68.287 54.5949 68.0787 53.8032 68.0787 52.8865C68.0787 51.8865 68.337 51.0699 68.8537 50.4365C69.3704 49.7865 70.0954 49.3115 71.0287 49.0115C71.962 48.6949 73.037 48.5365 74.2537 48.5365H77.1787V50.7615H74.2287C73.5287 50.7615 72.987 50.9365 72.6037 51.2865C72.237 51.6199 72.0537 52.0782 72.0537 52.6615C72.0537 53.2115 72.237 53.6615 72.6037 54.0115C72.987 54.3449 73.5287 54.5115 74.2287 54.5115C74.6787 54.5115 75.0787 54.4365 75.4287 54.2865C75.7954 54.1199 76.0954 53.8449 76.3287 53.4615C76.562 53.0782 76.6954 52.5449 76.7287 51.8615L77.6787 52.8615C77.5954 53.8115 77.362 54.6115 76.9787 55.2615C76.612 55.9115 76.0954 56.4115 75.4287 56.7615C74.7787 57.1115 73.9787 57.2865 73.0287 57.2865ZM69.5537 41.6365L72.1287 36.4115H77.0037L79.6287 41.6365H76.2537L74.7037 38.2865H74.3787L72.8537 41.6365H69.5537ZM90.1975 57.1115C88.8141 57.1115 87.6975 56.9449 86.8475 56.6115C85.9975 56.2615 85.3725 55.6865 84.9725 54.8865C84.5891 54.0699 84.3975 52.9699 84.3975 51.5865V39.5365H88.1225V51.7365C88.1225 52.3865 88.2891 52.8865 88.6225 53.2365C88.9725 53.5699 89.4641 53.7365 90.0975 53.7365H92.1225V57.1115H90.1975ZM82.3225 46.1615V43.2365H92.1225V46.1615H82.3225ZM101.038 57.4115C99.8718 57.4115 98.8385 57.2115 97.9385 56.8115C97.0551 56.4115 96.3135 55.8782 95.7135 55.2115C95.1301 54.5282 94.6801 53.7699 94.3635 52.9365C94.0635 52.0865 93.9135 51.2199 93.9135 50.3365V49.8365C93.9135 48.9199 94.0635 48.0449 94.3635 47.2115C94.6801 46.3615 95.1301 45.6032 95.7135 44.9365C96.2968 44.2699 97.0218 43.7449 97.8885 43.3615C98.7718 42.9615 99.7718 42.7615 100.888 42.7615C102.355 42.7615 103.588 43.0949 104.588 43.7615C105.605 44.4115 106.38 45.2699 106.913 46.3365C107.447 47.3865 107.713 48.5365 107.713 49.7865V51.1365H95.5885V48.8615H105.288L103.988 49.9115C103.988 49.0949 103.872 48.3949 103.638 47.8115C103.405 47.2282 103.055 46.7865 102.588 46.4865C102.138 46.1699 101.572 46.0115 100.888 46.0115C100.188 46.0115 99.5968 46.1699 99.1135 46.4865C98.6301 46.8032 98.2635 47.2699 98.0135 47.8865C97.7635 48.4865 97.6385 49.2282 97.6385 50.1115C97.6385 50.9282 97.7551 51.6449 97.9885 52.2615C98.2218 52.8615 98.5885 53.3282 99.0885 53.6615C99.5885 53.9949 100.238 54.1615 101.038 54.1615C101.772 54.1615 102.372 54.0199 102.838 53.7365C103.305 53.4532 103.622 53.1032 103.788 52.6865H107.463C107.263 53.6032 106.872 54.4199 106.288 55.1365C105.705 55.8532 104.972 56.4115 104.088 56.8115C103.205 57.2115 102.188 57.4115 101.038 57.4115ZM118.639 56.9365V52.8865H117.964V48.4865C117.964 47.7865 117.797 47.2615 117.464 46.9115C117.131 46.5615 116.597 46.3865 115.864 46.3865C115.497 46.3865 115.014 46.3949 114.414 46.4115C113.814 46.4282 113.197 46.4532 112.564 46.4865C111.931 46.5199 111.356 46.5532 110.839 46.5865V43.2115C111.222 43.1782 111.672 43.1449 112.189 43.1115C112.706 43.0782 113.239 43.0532 113.789 43.0365C114.339 43.0199 114.856 43.0115 115.339 43.0115C116.739 43.0115 117.914 43.2115 118.864 43.6115C119.831 44.0115 120.564 44.6199 121.064 45.4365C121.564 46.2365 121.814 47.2699 121.814 48.5365V56.9365H118.639ZM114.264 57.2865C113.281 57.2865 112.414 57.1115 111.664 56.7615C110.931 56.4115 110.356 55.9115 109.939 55.2615C109.522 54.5949 109.314 53.8032 109.314 52.8865C109.314 51.8865 109.572 51.0699 110.089 50.4365C110.606 49.7865 111.331 49.3115 112.264 49.0115C113.197 48.6949 114.272 48.5365 115.489 48.5365H118.414V50.7615H115.464C114.764 50.7615 114.222 50.9365 113.839 51.2865C113.472 51.6199 113.289 52.0782 113.289 52.6615C113.289 53.2115 113.472 53.6615 113.839 54.0115C114.222 54.3449 114.764 54.5115 115.464 54.5115C115.914 54.5115 116.314 54.4365 116.664 54.2865C117.031 54.1199 117.331 53.8449 117.564 53.4615C117.797 53.0782 117.931 52.5449 117.964 51.8615L118.914 52.8615C118.831 53.8115 118.597 54.6115 118.214 55.2615C117.847 55.9115 117.331 56.4115 116.664 56.7615C116.014 57.1115 115.214 57.2865 114.264 57.2865ZM129.833 57.3615C128.249 57.3615 127.033 56.8532 126.183 55.8365C125.333 54.8032 124.908 53.2532 124.908 51.1865V43.2365H128.908V51.3865C128.908 52.1199 129.116 52.7032 129.533 53.1365C129.949 53.5699 130.508 53.7865 131.208 53.7865C131.924 53.7865 132.508 53.5615 132.958 53.1115C133.408 52.6615 133.633 52.0532 133.633 51.2865V43.2365H137.633V56.9365H134.458V51.1615H134.733C134.733 52.5449 134.549 53.7032 134.183 54.6365C133.833 55.5532 133.308 56.2365 132.608 56.6865C131.908 57.1365 131.041 57.3615 130.008 57.3615H129.833Z" fill="white"/>
</svg>
